# Blender v2.77 (sub 0) OBJ File: 'Modular.blend'
# www.blender.org
o Ceiling_textureBakeSet1_Ceiling
v -6.000000 12.000001 -5.999998
v 6.000000 12.000001 -5.999998
v 6.000000 11.999999 6.000002
v -6.000000 11.999999 6.000002
v -4.744602 11.894979 -5.999998
v -4.995801 11.578464 -5.999998
v -4.995801 11.578462 6.000002
v -4.744602 11.894978 6.000002
v -4.904959 11.184724 -5.999998
v -4.904959 11.184722 6.000002
v -4.540482 11.010254 -5.999998
v -4.540482 11.010252 6.000002
v -4.176828 11.186434 -5.999998
v -4.176828 11.186432 6.000002
v -4.087837 11.580596 -5.999998
v -4.087837 11.580594 6.000002
v -4.340520 11.895928 -5.999998
v -4.340520 11.895926 6.000002
v -5.999999 10.664659 0.473590
v 5.999999 10.664659 0.473590
v 5.999999 11.451568 0.473590
v -5.999999 11.451568 0.473590
v -5.999999 10.666517 -0.473586
v 5.999999 10.666517 -0.473586
v 5.999999 10.629546 -0.421655
v -5.999999 10.629546 -0.421655
v 5.999999 10.629546 0.421659
v -5.999999 10.629546 0.421659
v -1.679323 11.894979 -5.999998
v -1.930522 11.578464 -5.999998
v -1.930522 11.578462 6.000002
v -1.679323 11.894978 6.000002
v -1.839680 11.184724 -5.999998
v -1.839680 11.184722 6.000002
v -1.475203 11.010254 -5.999998
v -1.475203 11.010252 6.000002
v -1.111549 11.186434 -5.999998
v -1.111549 11.186432 6.000002
v -1.022558 11.580596 -5.999998
v -1.022558 11.580594 6.000002
v -1.275241 11.895928 -5.999998
v -1.275241 11.895926 6.000002
v 1.385954 11.894979 -5.999998
v 1.134755 11.578464 -5.999998
v 1.134755 11.578462 6.000002
v 1.385954 11.894978 6.000002
v 1.225597 11.184724 -5.999998
v 1.225597 11.184722 6.000002
v 1.590075 11.010254 -5.999998
v 1.590075 11.010252 6.000002
v 1.953728 11.186434 -5.999998
v 1.953728 11.186432 6.000002
v 2.042719 11.580596 -5.999998
v 2.042719 11.580594 6.000002
v 1.790036 11.895928 -5.999998
v 1.790036 11.895926 6.000002
v 4.451232 11.894979 -5.999998
v 4.200033 11.578464 -5.999998
v 4.200033 11.578462 6.000002
v 4.451232 11.894978 6.000002
v 4.290875 11.184724 -5.999998
v 4.290875 11.184722 6.000002
v 4.655353 11.010254 -5.999998
v 4.655353 11.010252 6.000002
v 5.019006 11.186434 -5.999998
v 5.019006 11.186432 6.000002
v 5.107997 11.580596 -5.999998
v 5.107997 11.580594 6.000002
v 4.855314 11.895928 -5.999998
v 4.855314 11.895926 6.000002
v -5.999999 11.451568 -0.473586
v 5.999999 11.451568 -0.473586
vt 0.002500 0.374817
vt 0.096126 0.374817
vt 0.096126 0.468443
vt 0.002500 0.468443
vt 0.195200 0.127471
vt 0.005201 0.126983
vt 0.005235 0.113630
vt 0.195235 0.114119
vt 0.435378 0.006636
vt 0.435378 0.021130
vt 0.004942 0.021130
vt 0.004942 0.006636
vt 0.435378 0.035624
vt 0.004942 0.035624
vt 0.435378 0.050119
vt 0.004942 0.050119
vt 0.435378 0.064613
vt 0.004942 0.064613
vt 0.435378 0.079108
vt 0.004942 0.079108
vt 0.435378 0.093602
vt 0.004942 0.093602
vt 0.195237 0.113126
vt 0.005238 0.112638
vt 0.005270 0.100179
vt 0.195269 0.100667
vt 0.195198 0.128481
vt 0.005198 0.127992
vt 0.435378 0.006636
vt 0.435378 0.021130
vt 0.004942 0.021130
vt 0.004942 0.006636
vt 0.435378 0.035624
vt 0.004942 0.035624
vt 0.435378 0.050119
vt 0.004942 0.050119
vt 0.435378 0.064613
vt 0.004942 0.064613
vt 0.435378 0.079108
vt 0.004942 0.079108
vt 0.435378 0.093602
vt 0.004942 0.093602
vt 0.435378 0.006636
vt 0.435378 0.021130
vt 0.004942 0.021130
vt 0.004942 0.006636
vt 0.435378 0.035624
vt 0.004942 0.035624
vt 0.435378 0.050119
vt 0.004942 0.050119
vt 0.435378 0.064613
vt 0.004942 0.064613
vt 0.435378 0.079108
vt 0.004942 0.079108
vt 0.435378 0.093602
vt 0.004942 0.093602
vt 0.435378 0.006636
vt 0.435378 0.021130
vt 0.004942 0.021130
vt 0.004942 0.006636
vt 0.435378 0.035624
vt 0.004942 0.035624
vt 0.435378 0.050119
vt 0.004942 0.050119
vt 0.435378 0.064613
vt 0.004942 0.064613
vt 0.435378 0.079108
vt 0.004942 0.079108
vt 0.435378 0.093602
vt 0.004942 0.093602
vt 0.195166 0.140911
vt 0.005166 0.140422
vn 0.000000 -1.000000 -0.000000
vn -0.783300 0.621700 0.000000
vn -0.975400 0.220200 0.000000
vn -0.780400 -0.625300 -0.000000
vn 0.002300 -1.000000 -0.000000
vn 0.783300 -0.621700 -0.000000
vn 0.974400 0.224800 0.000000
vn 0.780400 0.625300 0.000000
vn 0.000200 -0.063000 0.998000
vn 0.000000 -0.063000 0.998000
vn 0.000000 0.000000 1.000000
vn 0.000000 -0.063000 -0.998000
vn 0.000000 -0.814600 -0.580000
vn 0.000000 -0.828400 0.560100
vn 0.000000 0.000000 -1.000000
s off
f 1/1/1 2/2/1 3/3/1 4/4/1
f 26/5/1 25/6/1 27/7/1 28/8/1
s 1
f 5/9/2 6/10/3 7/11/3 8/12/2
f 6/10/3 9/13/4 10/14/4 7/11/3
f 9/13/4 11/15/5 12/16/5 10/14/4
f 11/15/5 13/17/6 14/18/6 12/16/5
f 13/17/6 15/19/7 16/20/7 14/18/6
f 15/19/7 17/21/8 18/22/8 16/20/7
f 19/23/9 20/24/10 21/25/11 22/26/11
f 23/27/12 24/28/12 25/6/13 26/5/13
f 29/29/2 30/30/3 31/31/3 32/32/2
f 30/30/3 33/33/4 34/34/4 31/31/3
f 33/33/4 35/35/5 36/36/5 34/34/4
f 35/35/5 37/37/6 38/38/6 36/36/5
f 37/37/6 39/39/7 40/40/7 38/38/6
f 39/39/7 41/41/8 42/42/8 40/40/7
f 43/43/2 44/44/3 45/45/3 46/46/2
f 44/44/3 47/47/4 48/48/4 45/45/3
f 47/47/4 49/49/5 50/50/5 48/48/4
f 49/49/5 51/51/6 52/52/6 50/50/5
f 51/51/6 53/53/7 54/54/7 52/52/6
f 53/53/7 55/55/8 56/56/8 54/54/7
f 57/57/2 58/58/3 59/59/3 60/60/2
f 58/58/3 61/61/4 62/62/4 59/59/3
f 61/61/4 63/63/5 64/64/5 62/62/4
f 63/63/5 65/65/6 66/66/6 64/64/5
f 65/65/6 67/67/7 68/68/7 66/66/6
f 67/67/7 69/69/8 70/70/8 68/68/7
f 28/8/14 27/7/14 20/24/10 19/23/9
f 71/71/15 72/72/15 24/28/12 23/27/12
