# Blender v2.77 (sub 0) OBJ File: 'Modular.blend'
# www.blender.org
o Corner_post_textureBakeSet1_Corner.002
v 5.732047 12.097535 -4.876982
v 5.457630 12.097535 -4.569586
v 5.457630 0.229157 -4.569588
v 5.732047 0.229157 -4.876984
v 5.054939 12.097535 -4.482197
v 5.054939 0.229157 -4.482199
v 4.677789 12.097535 -4.648191
v 4.677789 0.229157 -4.648193
v 4.470238 12.097535 -5.004167
v 4.470238 0.229157 -5.004169
v 4.511563 12.097535 -5.414154
v 4.511563 0.229157 -5.414156
v 4.785980 12.097535 -5.721550
v 4.785980 0.229157 -5.721552
v 5.652870 12.228179 -4.910841
v 5.078412 12.228189 -4.557650
v 5.415042 12.228179 -4.644430
v 5.078412 0.098496 -4.557653
v 5.652870 0.098496 -4.910843
v 5.415042 0.098496 -4.644432
v 4.736991 12.228179 -4.714508
v 4.828568 12.228179 -5.646707
v 4.542557 12.228179 -5.036016
v 4.590741 12.228179 -5.380297
v 4.736991 0.098496 -4.714510
v 4.542557 0.098496 -5.036018
v 4.828568 0.098496 -5.646709
v 4.590741 0.098496 -5.380299
vt 0.509836 0.877003
vt 0.518530 0.864452
vt 0.974865 0.864430
vt 0.982690 0.877932
vt 0.522313 0.849819
vt 0.971377 0.849548
vt 0.522627 0.834712
vt 0.971024 0.834422
vt 0.520645 0.819700
vt 0.971525 0.819372
vt 0.517220 0.804895
vt 0.974923 0.804694
vt 0.509920 0.791191
vt 0.982903 0.791722
vt 0.501783 0.865951
vt 0.518395 0.849039
vt 0.513517 0.859761
vt 0.975477 0.848691
vt 0.991096 0.866974
vt 0.979775 0.859882
vt 0.518603 0.835212
vt 0.501912 0.802220
vt 0.515815 0.820672
vt 0.512277 0.809454
vt 0.975765 0.834470
vt 0.975573 0.820103
vt 0.991051 0.802772
vt 0.979953 0.809228
vn 0.746000 0.005600 0.665900
vn 0.503800 0.005700 0.863800
vn 0.503700 -0.005700 0.863800
vn 0.746000 -0.005700 0.665900
vn -0.100500 0.005800 0.994900
vn -0.100500 -0.005900 0.994900
vn -0.665900 0.006100 0.746000
vn -0.665900 -0.006100 0.746000
vn -0.977200 0.005800 0.212300
vn -0.977200 -0.005900 0.212300
vn -0.915200 0.005700 -0.402900
vn -0.915200 -0.005700 -0.402900
vn -0.746000 0.005600 -0.665900
vn -0.746000 -0.005700 -0.665900
vn 0.000000 1.000000 -0.000000
vn -0.000000 -1.000000 -0.000000
vn 0.436100 0.533200 0.724900
vn -0.068600 0.534900 0.842100
vn 0.632700 0.529800 0.564800
vn -0.557100 0.548000 0.624000
vn -0.829000 0.534900 0.163300
vn -0.769600 0.533200 -0.351400
vn -0.632700 0.529800 -0.564800
vn 0.436100 -0.533100 0.725000
vn 0.632700 -0.529800 0.564800
vn -0.068600 -0.534900 0.842200
vn -0.557100 -0.548000 0.624000
vn -0.829000 -0.534900 0.163300
vn -0.769600 -0.533100 -0.351400
vn -0.632700 -0.529800 -0.564800
s 1
f 1/1/1 2/2/2 3/3/3 4/4/4
f 2/2/2 5/5/5 6/6/6 3/3/3
f 5/5/5 7/7/7 8/8/8 6/6/6
f 7/7/7 9/9/9 10/10/10 8/8/8
f 9/9/9 11/11/11 12/12/12 10/10/10
f 11/11/11 13/13/13 14/14/14 12/12/12
f 15/15/15 16/16/15 17/17/15
f 18/18/16 19/19/16 20/20/16
f 15/15/15 21/21/15 16/16/15
f 22/22/15 23/23/15 21/21/15 15/15/15
f 22/22/15 24/24/15 23/23/15
f 25/25/16 19/19/16 18/18/16
f 26/26/16 27/27/16 19/19/16 25/25/16
f 27/27/16 26/26/16 28/28/16
f 5/5/5 2/2/2 17/17/17 16/16/18
f 2/2/2 1/1/1 15/15/19 17/17/17
f 7/7/7 5/5/5 16/16/18 21/21/20
f 9/9/9 7/7/7 21/21/20 23/23/21
f 13/13/13 11/11/11 24/24/22 22/22/23
f 11/11/11 9/9/9 23/23/21 24/24/22
f 4/4/4 3/3/3 20/20/24 19/19/25
f 3/3/3 6/6/6 18/18/26 20/20/24
f 6/6/6 8/8/8 25/25/27 18/18/26
f 8/8/8 10/10/10 26/26/28 25/25/27
f 10/10/10 12/12/12 28/28/29 26/26/28
f 12/12/12 14/14/14 27/27/30 28/28/29
